# xmcd
#
# Track frame offsets: 
#        150
#        9458
#        17245
#        36368
#        51680
#        69013
#        82185
#        95523
#        114014
#        125136
#        140191
#        156172
#        168792
#        183558
#        194048
#        207328
#        218499
#        237958
#
# Disc length: 3340 seconds
#
# Revision: 1
# Processed by: cddbd v1.5.2PL0 Copyright (c) Steve Scherf et al.
# Submitted via: ExactAudioCopyFreeDBPlugin 1.0
#
DISCID=070d0a12
DTITLE=Fausto Rapetti - 1995 - More Feelings Again
DYEAR=1995
DGENRE=Blues
TTITLE0=You don't have to say You love me
TTITLE1=Say Say Say
TTITLE2=the Goldest of My Life
TTITLE3=Do You Really Want to Hurt me
TTITLE4=A Song for You
TTITLE5=Love Story
TTITLE6=A Whiter Shade of Pale
TTITLE7=Blade Runner Blues
TTITLE8=People
TTITLE9=This Guy's in Love with You
TTITLE10=Alone Again (Naturally)
TTITLE11=Every Breath You Take
TTITLE12=September Morn'
TTITLE13=Juliet
TTITLE14=Run to Me
TTITLE15=Smoke Gets in Your Eyes
TTITLE16=Tragedy
TTITLE17=Love me Tender
EXTD=
EXTT0=
EXTT1=
EXTT2=
EXTT3=
EXTT4=
EXTT5=
EXTT6=
EXTT7=
EXTT8=
EXTT9=
EXTT10=
EXTT11=
EXTT12=
EXTT13=
EXTT14=
EXTT15=
EXTT16=
EXTT17=
PLAYORDER=
